<svg xmlns="http://www.w3.org/2000/svg" width="341.333" height="341.333" viewBox="0 0 256 256" preserveAspectRatio="xMidYMid meet" xmlns:v="https://vecta.io/nano"><path d="M75.4 20.3L19.6 40.9c-1.9 1.6-2.1 5.4-.3 6.9C22 50.1 130.1 94 132.9 94c1.7 0 27.7-10.2 58.2-22.8 58.6-24.1 59-24.4 55.8-29.3-1.1-1.6-14.6-6.8-56.3-21.5C160.5 9.7 134.4 1 132.7 1c-1.8.1-27.6 8.7-57.3 19.3zm72 17.2c4.8 2.5 6.1 4.4 5.2 7.9-1.1 4.3-8 6.9-19.1 7.3-10.6.4-17.7-1.6-20.9-6l-2-2.7 2.1-2.8c3.3-4.5 9.3-6.2 20.8-5.9 7.7.1 10.9.7 13.9 2.2zM10.2 61.2c-.9.9-1.2 16.7-1.2 64.7 0 58.6.1 63.9 1.8 67.1 1.5 3.1 6.9 6.3 56.2 32.7 41.8 22.5 55.2 29.3 57.5 29.1l3-.3.5-144.4-2.7-2.6C122.3 104.6 17.2 60 13.5 60c-1.2 0-2.6.5-3.3 1.2zm90.1 49.2c10.9 4.5 18.2 22 13.3 31.4-4.1 7.9-12.8 7.4-21.3-1.3-7.6-7.8-10.2-17.7-6.7-25.1 2.8-5.8 8.3-7.7 14.7-5zm-34 25C74 138.6 81 150 81 159.4c0 5.5-3.4 10.7-7.8 12-6.9 1.9-16.2-5.5-20.2-16.1-2.4-6.3-2.5-10.1-.6-14.7 2.5-6.1 7.4-8 13.9-5.2zm-32 23.5c3.7 1.4 8.8 7.1 11.4 12.8 4.4 9.5 2.7 19.6-3.6 22.3-11.5 4.7-27-18.6-20.6-31 2.5-4.7 7.1-6.2 12.8-4.1zM197 82.3l-54.8 23.5c-5.2 3-5.2 2.8-5.2 77.5 0 52.6.3 69.6 1.2 70.5.7.7 2.3 1.2 3.6 1.2 3.1 0 109.7-57.2 112.2-60.2 1.9-2.2 1.9-4.4 1.7-68.3l-.2-66-3-.2c-2-.1-20.8 7.4-55.5 22zm-6 40.5c9.6 9.7-.8 33.3-15.4 34.9-4 .5-4.8.2-7.4-2.4-3.9-3.9-4.9-9.5-2.8-16.7 4.2-14.4 18.3-23.1 25.6-15.8zm38.6 28.6c2.4 2 2.8 3.3 3.2 8.8.3 5.5 0 7.4-2.3 12.1-4.5 9.6-13.9 15.7-20 12.9-9-4.1-7.5-21.4 2.7-30.8 6.5-6.1 11.7-7.1 16.4-3z"/></svg>